<svg width="1015" height="1000" viewBox="0 0 1015 1000" fill="none" xmlns="http://www.w3.org/2000/svg">
<path fill-rule="evenodd" clip-rule="evenodd" d="M143.565 509.903H321.325C350.701 582.473 421.847 633.665 504.951 633.665C588.054 633.665 659.201 582.473 688.577 509.903H861.241C796.26 674.536 631.751 881.018 550.067 978.087C525.33 1007.31 479.476 1007.31 454.739 978.087C373.055 881.018 208.547 674.536 143.565 509.903Z" fill="#D13636"/>
<path fill-rule="evenodd" clip-rule="evenodd" d="M861.386 174.048L1001.7 247.878C1008.3 251.322 1012.65 255.603 1014.21 260.197C1015.77 264.792 1014.47 269.502 1010.47 273.753C1006.48 278.004 999.956 281.612 991.704 284.139C983.452 286.665 973.826 287.999 964 287.979H862.526V450.496H702.422C702.786 445.593 702.971 440.641 702.971 435.645C702.971 326.281 614.314 237.625 504.951 237.625C395.588 237.625 306.931 326.281 306.931 435.645C306.931 440.641 307.116 445.593 307.48 450.496H152.21V287.979H50.7361C30.695 287.979 12.5312 282.405 4.41328 273.731C0.406846 269.49 -0.910847 264.788 0.620414 260.198C2.15167 255.608 25.5972 241.124 32.1698 237.674L469.671 7.60465C488.9 -2.53488 525.836 -2.53488 545.066 7.60465L737.623 108.926V74.3085C737.623 71.5471 739.862 69.3085 742.623 69.3085H856.386C859.147 69.3085 861.386 71.5471 861.386 74.3085V174.048Z" fill="#1177C1"/>
<path fill-rule="evenodd" clip-rule="evenodd" d="M269.55 509.903C296.157 617.916 393.674 698.022 509.9 698.022C626.127 698.022 723.643 617.916 750.25 509.903H691.803C661.246 579.84 591.461 628.715 510.26 628.715C429.059 628.715 359.273 579.84 328.717 509.903H269.55Z" fill="#B72C2C"/>
</svg>
